# xmcd
#
# Track frame offsets:
#	150
#	14897
#	28787
#	40935
#	53640
#	66218
#	80020
#	91592
#	103980
#	115760
#	127375
#	141852
#	153042
#	165372
#	176452
#	188740
#	201400
#	217115
#
# Disc length: 3081 seconds
#
# Revision: 1
# Processed by: cddbd v1.5.2PL0 Copyright (c) Steve Scherf et al.
# Submitted via: audiograbber 1.83.01
#
DISCID=010c0712
DTITLE=CARMÉLIA ALVES - SUPER DIVAS
DYEAR=1900
DGENRE=FORRÓ
TTITLE0=PARAÍBA
TTITLE1=NO MEU PÉ DE SERRA
TTITLE2=BAIÃO DE DOIS
TTITLE3=ASSUM PRETO
TTITLE4=PÉ DE MANACÁ-ESTA NOITE SERENOU-SABIÁ LÁ NA GAIOLA
TTITLE5=EH! BOI-CABEÇA INCHADA-BAIÃO VAI... BAIÃO VEM
TTITLE6=ADEUS, ADEUS MORENA-O TREM CHEGOU
TTITLE7=ESQUINADO
TTITLE8=VOANDO PRA PARIS
TTITLE9=PAU-DE-ARARA
TTITLE10=QUI NEM GILÓ
TTITLE11=SORTE DE MARIA
TTITLE12=MAL DE AMOR
TTITLE13=JUAZEIRO
TTITLE14=BAIÃO DE SANTA LUZIA
TTITLE15=VAPÔ DE CARANGOLA
TTITLE16=ESTRADA DE CANINDÉ
TTITLE17=ASA BRANCA
EXTD=
EXTT0=
EXTT1=
EXTT2=
EXTT3=
EXTT4=
EXTT5=
EXTT6=
EXTT7=
EXTT8=
EXTT9=
EXTT10=
EXTT11=
EXTT12=
EXTT13=
EXTT14=
EXTT15=
EXTT16=
EXTT17=
PLAYORDER=
